<svg width="70" height="133" viewBox="0 0 70 133" fill="none" xmlns="http://www.w3.org/2000/svg">
<path d="M-70 66.1772C-70 66.3184 -70 66.4596 -70 66.6008L0.431351 0C0.282028 0 0.132774 0 -0.0165558 0C-1.02864 0 -2.04076 0.0313679 -3.05285 0.0627464L-69.9337 63.306C-69.9669 64.2631 -70 65.2044 -70 66.1772Z" fill="#E0E0E0"/>
<path d="M-68.905 77.8342L12.3441 1.00409C11.3652 0.847193 10.3697 0.690303 9.39084 0.564789L-69.353 75.0258C-69.2369 75.9829 -69.0875 76.9086 -68.905 77.8342Z" fill="#E0E0E0"/>
<path d="M-66.2504 87.5929L22.6476 3.53007C21.7848 3.24766 20.922 2.99663 20.0593 2.74561L-67.0634 85.1297C-66.8145 85.9613 -66.549 86.7771 -66.2504 87.5929Z" fill="#E0E0E0"/>
<path d="M-62.3845 96.2063L31.773 7.16995C31.0098 6.8091 30.2465 6.44825 29.4667 6.11877L-63.5127 94.0255C-63.1477 94.7629 -62.7827 95.4846 -62.3845 96.2063Z" fill="#E0E0E0"/>
<path d="M-57.5398 103.878L39.8697 11.7669C39.1894 11.3276 38.5092 10.8883 37.8289 10.4647L-58.9002 101.933C-58.4522 102.592 -58.0043 103.235 -57.5398 103.878Z" fill="#E0E0E0"/>
<path d="M-51.7824 110.703L47.087 17.2111C46.4897 16.6933 45.8759 16.1913 45.262 15.7049L-53.3918 108.993C-52.8609 109.574 -52.3299 110.138 -51.7824 110.703Z" fill="#E0E0E0"/>
<path d="M-45.179 116.728L53.4582 23.4554C52.9439 22.8749 52.4129 22.2944 51.8654 21.7296L-47.004 115.222C-46.4067 115.739 -45.7929 116.241 -45.179 116.728Z" fill="#E0E0E0"/>
<path d="M-37.7128 121.937L58.9832 30.4999C58.5352 29.8409 58.0872 29.1977 57.6061 28.5701L-39.7701 120.65C-39.0899 121.089 -38.4096 121.529 -37.7128 121.937Z" fill="#E0E0E0"/>
<path d="M-29.334 126.283L63.5625 38.4386C63.1975 37.7012 62.8324 36.9795 62.4508 36.2578L-31.6402 125.231C-30.877 125.592 -30.1138 125.937 -29.334 126.283Z" fill="#E0E0E0"/>
<path d="M-19.9099 129.64L67.1297 47.3501C66.8642 46.5186 66.5988 45.7027 66.3167 44.9026L-22.4983 128.887C-21.6521 129.138 -20.7893 129.389 -19.9099 129.64Z" fill="#E0E0E0"/>
<path d="M-9.22497 131.79L69.3861 57.4539C69.2534 56.5126 69.1041 55.587 68.9382 54.6456L-12.1782 131.35C-11.1993 131.523 -10.2205 131.664 -9.22497 131.79Z" fill="#E0E0E0"/>
<path d="M7.4476e-05 132.37C1.07853 132.37 2.15689 132.339 3.21875 132.292L69.9171 69.2208C69.9669 68.2167 70 67.197 70 66.1772C70 66.0987 70 66.0046 70 65.9261L-0.24884 132.354C-0.182474 132.354 -0.0828836 132.37 7.4476e-05 132.37Z" fill="#E0E0E0"/>
<path d="M18.6324 129.985L67.4782 83.7962C67.8929 82.3998 68.2579 80.9721 68.5565 79.5444L14.1194 131.021C15.6459 130.723 17.1558 130.377 18.6324 129.985Z" fill="#E0E0E0"/>
<path d="M60.5594 99.3755L35.1078 123.443C45.6435 117.654 54.4371 109.338 60.5594 99.3755Z" fill="#E0E0E0"/>
</svg>
