<svg width="76" height="194" viewBox="0 0 76 194" fill="none" xmlns="http://www.w3.org/2000/svg">
<path d="M57.25 81.25C67.6053 70.8947 67.6053 54.1053 57.25 43.75C46.8947 33.3946 30.1053 33.3947 19.75 43.75C9.39466 54.1053 9.39466 70.8947 19.75 81.25C30.1053 91.6053 46.8947 91.6053 57.25 81.25Z" fill="#20CE65" fill-opacity="0.4"/>
<path d="M42.5505 72.1365C47.8687 69.8956 50.3633 63.7676 48.1223 58.4493C45.8814 53.1311 39.7534 50.6365 34.4351 52.8775C29.1169 55.1185 26.6223 61.2465 28.8633 66.5647C31.1043 71.8829 37.2322 74.3775 42.5505 72.1365Z" fill="#E5E5E5" fill-opacity="0.45"/>
<path d="M19.99 176.87L3.63 160.43L19.99 143.98L3.63 127.54L19.99 111.1L5.56 96.6L19.99 82.09L3.63 65.65L19.99 49.2L3.63 32.76L19.99 16.32L3.75 0L1.93 1.82L16.36 16.32L0 32.76L16.36 49.2L0 65.65L16.36 82.09L1.92 96.6L16.36 111.1L0 127.54L16.36 143.98L0 160.43L16.36 176.87L1.93 191.38L3.75 193.19L19.99 176.87Z" fill="#E0E0E0"/>
<path d="M49.24 176.87L32.88 160.43L49.24 143.98L32.88 127.54L49.24 111.1L36.26 98.06L32.62 98.05L45.61 111.1L29.25 127.54L45.61 143.98L29.25 160.43L45.61 176.87L31.18 191.38L33.01 193.19L49.24 176.87Z" fill="#E0E0E0"/>
</svg>
