<svg width="89" height="29" viewBox="0 0 89 29" fill="none" xmlns="http://www.w3.org/2000/svg">
<path d="M6.39844 0.5625V29H0.539062V0.5625H6.39844ZM17.7266 12.7109V17.2812H4.79688V12.7109H17.7266ZM19.0938 0.5625V5.15234H4.79688V0.5625H19.0938ZM36.3594 0.5625L42.2969 13.5312L48.2344 0.5625H54.6211L45.2656 18.6484V29H39.3281V18.6484L29.9531 0.5625H36.3594ZM78.2539 18.8633H71.0078V14.293H78.2539C79.3737 14.293 80.2852 14.1107 80.9883 13.7461C81.6914 13.3685 82.2057 12.8477 82.5312 12.1836C82.8568 11.5195 83.0195 10.7708 83.0195 9.9375C83.0195 9.09115 82.8568 8.30339 82.5312 7.57422C82.2057 6.84505 81.6914 6.25911 80.9883 5.81641C80.2852 5.3737 79.3737 5.15234 78.2539 5.15234H73.0391V29H67.1797V0.5625H78.2539C80.4805 0.5625 82.388 0.966146 83.9766 1.77344C85.5781 2.56771 86.8021 3.66797 87.6484 5.07422C88.4948 6.48047 88.918 8.08854 88.918 9.89844C88.918 11.7344 88.4948 13.3229 87.6484 14.6641C86.8021 16.0052 85.5781 17.0404 83.9766 17.7695C82.388 18.4987 80.4805 18.8633 78.2539 18.8633Z" fill="#1DB954"/>
</svg>
